<mxfile host="app.diagrams.net" agent="Mozilla/5.0 (Macintosh; Intel Mac OS X 10_15_7) AppleWebKit/537.36 (KHTML, like Gecko) Chrome/131.0.0.0 Safari/537.36" version="26.0.6" pages="4">
  <diagram name="第 1 页" id="IeBE4TxrIKwJ-vVv5vwF">
    <mxGraphModel grid="0" page="1" gridSize="10" guides="1" tooltips="1" connect="1" arrows="1" fold="1" pageScale="1" pageWidth="827" pageHeight="1169" math="0" shadow="0">
      <root>
        <mxCell id="0" />
        <mxCell id="1" parent="0" />
        <mxCell id="xSpjs1CuIjZMWtGr5CuO-3" style="edgeStyle=orthogonalEdgeStyle;rounded=0;orthogonalLoop=1;jettySize=auto;html=1;exitX=0.5;exitY=1;exitDx=0;exitDy=0;entryX=0.5;entryY=0;entryDx=0;entryDy=0;" edge="1" parent="1" source="xSpjs1CuIjZMWtGr5CuO-1" target="xSpjs1CuIjZMWtGr5CuO-2">
          <mxGeometry relative="1" as="geometry" />
        </mxCell>
        <mxCell id="xSpjs1CuIjZMWtGr5CuO-1" value="AE软件设计" style="rounded=1;whiteSpace=wrap;html=1;" vertex="1" parent="1">
          <mxGeometry x="364" y="86" width="120" height="60" as="geometry" />
        </mxCell>
        <mxCell id="xSpjs1CuIjZMWtGr5CuO-9" style="edgeStyle=orthogonalEdgeStyle;rounded=0;orthogonalLoop=1;jettySize=auto;html=1;exitX=0.5;exitY=1;exitDx=0;exitDy=0;" edge="1" parent="1" source="xSpjs1CuIjZMWtGr5CuO-2" target="xSpjs1CuIjZMWtGr5CuO-6">
          <mxGeometry relative="1" as="geometry" />
        </mxCell>
        <mxCell id="xSpjs1CuIjZMWtGr5CuO-2" value="生成Ymat" style="rounded=1;whiteSpace=wrap;html=1;" vertex="1" parent="1">
          <mxGeometry x="364" y="208" width="120" height="60" as="geometry" />
        </mxCell>
        <mxCell id="xSpjs1CuIjZMWtGr5CuO-11" style="edgeStyle=orthogonalEdgeStyle;rounded=0;orthogonalLoop=1;jettySize=auto;html=1;exitX=0.5;exitY=1;exitDx=0;exitDy=0;" edge="1" parent="1" source="xSpjs1CuIjZMWtGr5CuO-6" target="xSpjs1CuIjZMWtGr5CuO-10">
          <mxGeometry relative="1" as="geometry" />
        </mxCell>
        <mxCell id="xSpjs1CuIjZMWtGr5CuO-6" value="Android客户端" style="rounded=1;whiteSpace=wrap;html=1;" vertex="1" parent="1">
          <mxGeometry x="364" y="316" width="120" height="60" as="geometry" />
        </mxCell>
        <mxCell id="xSpjs1CuIjZMWtGr5CuO-10" value="YMat播放器" style="rounded=1;whiteSpace=wrap;html=1;" vertex="1" parent="1">
          <mxGeometry x="364" y="428" width="120" height="60" as="geometry" />
        </mxCell>
      </root>
    </mxGraphModel>
  </diagram>
  <diagram id="SSOuIzf98aNxQcIewdjv" name="第 2 页">
    <mxGraphModel grid="0" page="1" gridSize="10" guides="1" tooltips="1" connect="1" arrows="1" fold="1" pageScale="1" pageWidth="827" pageHeight="1169" math="0" shadow="0">
      <root>
        <mxCell id="0" />
        <mxCell id="1" parent="0" />
        <mxCell id="kUwqwCnBbdYSYzupKUS7-3" style="edgeStyle=orthogonalEdgeStyle;rounded=0;orthogonalLoop=1;jettySize=auto;html=1;exitX=1;exitY=0.5;exitDx=0;exitDy=0;" edge="1" parent="1" source="kUwqwCnBbdYSYzupKUS7-1" target="kUwqwCnBbdYSYzupKUS7-2">
          <mxGeometry relative="1" as="geometry" />
        </mxCell>
        <mxCell id="kUwqwCnBbdYSYzupKUS7-1" value="AE工具" style="rounded=1;whiteSpace=wrap;html=1;" vertex="1" parent="1">
          <mxGeometry x="78" y="204" width="120" height="60" as="geometry" />
        </mxCell>
        <mxCell id="kUwqwCnBbdYSYzupKUS7-5" style="edgeStyle=orthogonalEdgeStyle;rounded=0;orthogonalLoop=1;jettySize=auto;html=1;exitX=1;exitY=0.5;exitDx=0;exitDy=0;" edge="1" parent="1" source="kUwqwCnBbdYSYzupKUS7-2" target="kUwqwCnBbdYSYzupKUS7-4">
          <mxGeometry relative="1" as="geometry" />
        </mxCell>
        <mxCell id="kUwqwCnBbdYSYzupKUS7-2" value="YMat AE插件" style="rounded=1;whiteSpace=wrap;html=1;" vertex="1" parent="1">
          <mxGeometry x="272" y="204" width="120" height="60" as="geometry" />
        </mxCell>
        <mxCell id="kUwqwCnBbdYSYzupKUS7-4" value="YMat包" style="rounded=1;whiteSpace=wrap;html=1;" vertex="1" parent="1">
          <mxGeometry x="490" y="204" width="120" height="60" as="geometry" />
        </mxCell>
      </root>
    </mxGraphModel>
  </diagram>
  <diagram id="_V9EevGXmQ7JjTfPd-PA" name="第 3 页">
    <mxGraphModel grid="0" page="1" gridSize="10" guides="1" tooltips="1" connect="1" arrows="1" fold="1" pageScale="1" pageWidth="827" pageHeight="1169" math="0" shadow="0">
      <root>
        <mxCell id="0" />
        <mxCell id="1" parent="0" />
        <mxCell id="cM1LRjc3AgB_WnRq3cY3-4" style="edgeStyle=orthogonalEdgeStyle;rounded=0;orthogonalLoop=1;jettySize=auto;html=1;exitX=0.5;exitY=1;exitDx=0;exitDy=0;" edge="1" parent="1" source="cM1LRjc3AgB_WnRq3cY3-1" target="cM1LRjc3AgB_WnRq3cY3-2">
          <mxGeometry relative="1" as="geometry" />
        </mxCell>
        <mxCell id="cM1LRjc3AgB_WnRq3cY3-5" style="edgeStyle=orthogonalEdgeStyle;rounded=0;orthogonalLoop=1;jettySize=auto;html=1;exitX=0.5;exitY=1;exitDx=0;exitDy=0;" edge="1" parent="1" source="cM1LRjc3AgB_WnRq3cY3-1" target="cM1LRjc3AgB_WnRq3cY3-3">
          <mxGeometry relative="1" as="geometry" />
        </mxCell>
        <mxCell id="cM1LRjc3AgB_WnRq3cY3-1" value="YMatView&lt;div&gt;YMat播放容器&lt;/div&gt;" style="rounded=1;whiteSpace=wrap;html=1;" vertex="1" parent="1">
          <mxGeometry x="402" y="99" width="120" height="60" as="geometry" />
        </mxCell>
        <mxCell id="cM1LRjc3AgB_WnRq3cY3-2" value="YMatParser&lt;br&gt;&lt;div&gt;YMat文件解析器&lt;/div&gt;" style="rounded=1;whiteSpace=wrap;html=1;" vertex="1" parent="1">
          <mxGeometry x="219" y="210" width="120" height="60" as="geometry" />
        </mxCell>
        <mxCell id="cM1LRjc3AgB_WnRq3cY3-8" style="edgeStyle=orthogonalEdgeStyle;rounded=0;orthogonalLoop=1;jettySize=auto;html=1;exitX=0.5;exitY=1;exitDx=0;exitDy=0;" edge="1" parent="1" source="cM1LRjc3AgB_WnRq3cY3-3" target="cM1LRjc3AgB_WnRq3cY3-6">
          <mxGeometry relative="1" as="geometry" />
        </mxCell>
        <mxCell id="cM1LRjc3AgB_WnRq3cY3-13" style="edgeStyle=orthogonalEdgeStyle;rounded=0;orthogonalLoop=1;jettySize=auto;html=1;exitX=0.5;exitY=1;exitDx=0;exitDy=0;" edge="1" parent="1" source="cM1LRjc3AgB_WnRq3cY3-3" target="cM1LRjc3AgB_WnRq3cY3-12">
          <mxGeometry relative="1" as="geometry" />
        </mxCell>
        <mxCell id="xbOr1U6wcmrfDHrBdjUR-2" style="edgeStyle=orthogonalEdgeStyle;rounded=0;orthogonalLoop=1;jettySize=auto;html=1;exitX=0.5;exitY=1;exitDx=0;exitDy=0;" edge="1" parent="1" source="cM1LRjc3AgB_WnRq3cY3-3" target="xbOr1U6wcmrfDHrBdjUR-1">
          <mxGeometry relative="1" as="geometry" />
        </mxCell>
        <mxCell id="cM1LRjc3AgB_WnRq3cY3-3" value="YMatPlayer&lt;div&gt;YMat播放器&lt;/div&gt;" style="rounded=1;whiteSpace=wrap;html=1;" vertex="1" parent="1">
          <mxGeometry x="402" y="210" width="120" height="60" as="geometry" />
        </mxCell>
        <mxCell id="cM1LRjc3AgB_WnRq3cY3-6" value="YMatHardDecoder&lt;div&gt;YMat视频解析器&lt;/div&gt;" style="rounded=1;whiteSpace=wrap;html=1;" vertex="1" parent="1">
          <mxGeometry x="315" y="349" width="120" height="60" as="geometry" />
        </mxCell>
        <mxCell id="cM1LRjc3AgB_WnRq3cY3-11" style="edgeStyle=orthogonalEdgeStyle;rounded=0;orthogonalLoop=1;jettySize=auto;html=1;exitX=0.5;exitY=1;exitDx=0;exitDy=0;" edge="1" parent="1" source="cM1LRjc3AgB_WnRq3cY3-7" target="cM1LRjc3AgB_WnRq3cY3-10">
          <mxGeometry relative="1" as="geometry" />
        </mxCell>
        <mxCell id="cM1LRjc3AgB_WnRq3cY3-7" value="YMatRender&lt;div&gt;YMat渲染管理器&lt;/div&gt;" style="rounded=1;whiteSpace=wrap;html=1;" vertex="1" parent="1">
          <mxGeometry x="514" y="443" width="120" height="60" as="geometry" />
        </mxCell>
        <mxCell id="cM1LRjc3AgB_WnRq3cY3-10" value="YMatJniUtils&lt;div&gt;Native YMat&lt;/div&gt;" style="rounded=1;whiteSpace=wrap;html=1;" vertex="1" parent="1">
          <mxGeometry x="514" y="530" width="120" height="60" as="geometry" />
        </mxCell>
        <mxCell id="cM1LRjc3AgB_WnRq3cY3-12" value="YMatThread&lt;div&gt;多线程&lt;/div&gt;" style="rounded=1;whiteSpace=wrap;html=1;" vertex="1" parent="1">
          <mxGeometry x="128" y="349" width="120" height="60" as="geometry" />
        </mxCell>
        <mxCell id="xbOr1U6wcmrfDHrBdjUR-3" style="edgeStyle=orthogonalEdgeStyle;rounded=0;orthogonalLoop=1;jettySize=auto;html=1;exitX=0.5;exitY=1;exitDx=0;exitDy=0;" edge="1" parent="1" source="xbOr1U6wcmrfDHrBdjUR-1" target="cM1LRjc3AgB_WnRq3cY3-7">
          <mxGeometry relative="1" as="geometry" />
        </mxCell>
        <mxCell id="xbOr1U6wcmrfDHrBdjUR-1" value="YMatSyner&lt;div&gt;YMat元素同步器&lt;/div&gt;" style="rounded=1;whiteSpace=wrap;html=1;" vertex="1" parent="1">
          <mxGeometry x="514" y="349" width="120" height="60" as="geometry" />
        </mxCell>
      </root>
    </mxGraphModel>
  </diagram>
  <diagram id="7B-7KGAlwBmD6U4YT_aI" name="第 4 页">
    <mxGraphModel dx="1434" dy="676" grid="0" gridSize="10" guides="1" tooltips="1" connect="1" arrows="1" fold="1" page="1" pageScale="1" pageWidth="827" pageHeight="1169" math="0" shadow="0">
      <root>
        <mxCell id="0" />
        <mxCell id="1" parent="0" />
        <mxCell id="xDSBVTYBkB1Cw8n1Mpdg-8" style="edgeStyle=orthogonalEdgeStyle;rounded=0;orthogonalLoop=1;jettySize=auto;html=1;exitX=0.5;exitY=1;exitDx=0;exitDy=0;" edge="1" parent="1" source="xDSBVTYBkB1Cw8n1Mpdg-1" target="xDSBVTYBkB1Cw8n1Mpdg-2">
          <mxGeometry relative="1" as="geometry" />
        </mxCell>
        <mxCell id="xDSBVTYBkB1Cw8n1Mpdg-1" value="YMatController&lt;div&gt;Ymat管理器&lt;/div&gt;" style="rounded=1;whiteSpace=wrap;html=1;" vertex="1" parent="1">
          <mxGeometry x="358" y="129" width="120" height="60" as="geometry" />
        </mxCell>
        <mxCell id="xDSBVTYBkB1Cw8n1Mpdg-9" style="edgeStyle=orthogonalEdgeStyle;rounded=0;orthogonalLoop=1;jettySize=auto;html=1;exitX=0;exitY=0.5;exitDx=0;exitDy=0;" edge="1" parent="1" source="xDSBVTYBkB1Cw8n1Mpdg-2" target="xDSBVTYBkB1Cw8n1Mpdg-3">
          <mxGeometry relative="1" as="geometry" />
        </mxCell>
        <mxCell id="xDSBVTYBkB1Cw8n1Mpdg-11" style="edgeStyle=orthogonalEdgeStyle;rounded=0;orthogonalLoop=1;jettySize=auto;html=1;exitX=0.5;exitY=1;exitDx=0;exitDy=0;" edge="1" parent="1" source="xDSBVTYBkB1Cw8n1Mpdg-2" target="xDSBVTYBkB1Cw8n1Mpdg-4">
          <mxGeometry relative="1" as="geometry" />
        </mxCell>
        <mxCell id="xDSBVTYBkB1Cw8n1Mpdg-2" value="YMatPlayer&lt;div&gt;ymat播放器&lt;/div&gt;" style="rounded=1;whiteSpace=wrap;html=1;" vertex="1" parent="1">
          <mxGeometry x="358" y="242" width="120" height="60" as="geometry" />
        </mxCell>
        <mxCell id="xDSBVTYBkB1Cw8n1Mpdg-10" style="edgeStyle=orthogonalEdgeStyle;rounded=0;orthogonalLoop=1;jettySize=auto;html=1;exitX=1;exitY=0.75;exitDx=0;exitDy=0;entryX=0;entryY=0.75;entryDx=0;entryDy=0;" edge="1" parent="1" source="xDSBVTYBkB1Cw8n1Mpdg-3" target="xDSBVTYBkB1Cw8n1Mpdg-2">
          <mxGeometry relative="1" as="geometry" />
        </mxCell>
        <mxCell id="xDSBVTYBkB1Cw8n1Mpdg-3" value="YMatConfig&lt;div&gt;ymat json描述解析&lt;/div&gt;" style="rounded=1;whiteSpace=wrap;html=1;" vertex="1" parent="1">
          <mxGeometry x="178" y="242" width="120" height="60" as="geometry" />
        </mxCell>
        <mxCell id="xDSBVTYBkB1Cw8n1Mpdg-12" style="edgeStyle=orthogonalEdgeStyle;rounded=0;orthogonalLoop=1;jettySize=auto;html=1;exitX=0.5;exitY=1;exitDx=0;exitDy=0;" edge="1" parent="1" source="xDSBVTYBkB1Cw8n1Mpdg-4" target="xDSBVTYBkB1Cw8n1Mpdg-7">
          <mxGeometry relative="1" as="geometry" />
        </mxCell>
        <mxCell id="xDSBVTYBkB1Cw8n1Mpdg-4" value="RenderContoller&lt;div&gt;渲染器&lt;/div&gt;" style="rounded=1;whiteSpace=wrap;html=1;" vertex="1" parent="1">
          <mxGeometry x="358" y="350" width="120" height="60" as="geometry" />
        </mxCell>
        <mxCell id="xDSBVTYBkB1Cw8n1Mpdg-5" value="TextCpuDrawer&lt;div&gt;文字渲染&lt;/div&gt;" style="rounded=1;whiteSpace=wrap;html=1;" vertex="1" parent="1">
          <mxGeometry x="104" y="565" width="120" height="60" as="geometry" />
        </mxCell>
        <mxCell id="xDSBVTYBkB1Cw8n1Mpdg-15" style="edgeStyle=orthogonalEdgeStyle;rounded=0;orthogonalLoop=1;jettySize=auto;html=1;exitX=0;exitY=0.25;exitDx=0;exitDy=0;entryX=1;entryY=0.25;entryDx=0;entryDy=0;" edge="1" parent="1" source="xDSBVTYBkB1Cw8n1Mpdg-6" target="xDSBVTYBkB1Cw8n1Mpdg-7">
          <mxGeometry relative="1" as="geometry" />
        </mxCell>
        <mxCell id="xDSBVTYBkB1Cw8n1Mpdg-6" value="VectorDrawer&lt;br&gt;&lt;div&gt;组元素&lt;/div&gt;" style="rounded=1;whiteSpace=wrap;html=1;" vertex="1" parent="1">
          <mxGeometry x="454" y="452" width="120" height="60" as="geometry" />
        </mxCell>
        <mxCell id="xDSBVTYBkB1Cw8n1Mpdg-14" style="edgeStyle=orthogonalEdgeStyle;rounded=0;orthogonalLoop=1;jettySize=auto;html=1;exitX=1;exitY=0.5;exitDx=0;exitDy=0;" edge="1" parent="1" source="xDSBVTYBkB1Cw8n1Mpdg-7" target="xDSBVTYBkB1Cw8n1Mpdg-6">
          <mxGeometry relative="1" as="geometry" />
        </mxCell>
        <mxCell id="xDSBVTYBkB1Cw8n1Mpdg-19" style="edgeStyle=orthogonalEdgeStyle;rounded=0;orthogonalLoop=1;jettySize=auto;html=1;exitX=0.5;exitY=1;exitDx=0;exitDy=0;" edge="1" parent="1" source="xDSBVTYBkB1Cw8n1Mpdg-7" target="xDSBVTYBkB1Cw8n1Mpdg-5">
          <mxGeometry relative="1" as="geometry" />
        </mxCell>
        <mxCell id="xDSBVTYBkB1Cw8n1Mpdg-20" style="edgeStyle=orthogonalEdgeStyle;rounded=0;orthogonalLoop=1;jettySize=auto;html=1;exitX=0.5;exitY=1;exitDx=0;exitDy=0;" edge="1" parent="1" source="xDSBVTYBkB1Cw8n1Mpdg-7" target="xDSBVTYBkB1Cw8n1Mpdg-16">
          <mxGeometry relative="1" as="geometry" />
        </mxCell>
        <mxCell id="xDSBVTYBkB1Cw8n1Mpdg-21" style="edgeStyle=orthogonalEdgeStyle;rounded=0;orthogonalLoop=1;jettySize=auto;html=1;exitX=0.5;exitY=1;exitDx=0;exitDy=0;" edge="1" parent="1" source="xDSBVTYBkB1Cw8n1Mpdg-7" target="xDSBVTYBkB1Cw8n1Mpdg-17">
          <mxGeometry relative="1" as="geometry" />
        </mxCell>
        <mxCell id="xDSBVTYBkB1Cw8n1Mpdg-22" style="edgeStyle=orthogonalEdgeStyle;rounded=0;orthogonalLoop=1;jettySize=auto;html=1;exitX=0.5;exitY=1;exitDx=0;exitDy=0;" edge="1" parent="1" source="xDSBVTYBkB1Cw8n1Mpdg-7" target="xDSBVTYBkB1Cw8n1Mpdg-18">
          <mxGeometry relative="1" as="geometry" />
        </mxCell>
        <mxCell id="xDSBVTYBkB1Cw8n1Mpdg-7" value="Layers&lt;br&gt;&lt;div&gt;层级管理器&lt;/div&gt;" style="rounded=1;whiteSpace=wrap;html=1;" vertex="1" parent="1">
          <mxGeometry x="274" y="452" width="120" height="60" as="geometry" />
        </mxCell>
        <mxCell id="xDSBVTYBkB1Cw8n1Mpdg-16" value="ShapeDrawer&lt;div&gt;图形渲染&lt;/div&gt;" style="rounded=1;whiteSpace=wrap;html=1;align=center;verticalAlign=top;" vertex="1" parent="1">
          <mxGeometry x="243" y="562" width="182" height="261" as="geometry" />
        </mxCell>
        <mxCell id="xDSBVTYBkB1Cw8n1Mpdg-17" value="ImageDrawer&lt;div&gt;图片渲染&lt;/div&gt;" style="rounded=1;whiteSpace=wrap;html=1;" vertex="1" parent="1">
          <mxGeometry x="467" y="562" width="120" height="60" as="geometry" />
        </mxCell>
        <mxCell id="xDSBVTYBkB1Cw8n1Mpdg-18" value="VideoDrawer&lt;div&gt;视频渲染&lt;/div&gt;" style="rounded=1;whiteSpace=wrap;html=1;" vertex="1" parent="1">
          <mxGeometry x="657" y="565" width="120" height="60" as="geometry" />
        </mxCell>
        <mxCell id="xDSBVTYBkB1Cw8n1Mpdg-23" value="PathDrawer&lt;div&gt;路径渲染&lt;/div&gt;" style="rounded=1;whiteSpace=wrap;html=1;" vertex="1" parent="1">
          <mxGeometry x="274" y="606" width="120" height="60" as="geometry" />
        </mxCell>
        <mxCell id="xDSBVTYBkB1Cw8n1Mpdg-24" value="ElementDrawer&lt;div&gt;多边形渲染&lt;/div&gt;" style="rounded=1;whiteSpace=wrap;html=1;" vertex="1" parent="1">
          <mxGeometry x="277" y="677" width="120" height="60" as="geometry" />
        </mxCell>
        <mxCell id="xDSBVTYBkB1Cw8n1Mpdg-25" value="EllipseDrawer&lt;div&gt;&lt;span style=&quot;background-color: transparent; color: light-dark(rgb(0, 0, 0), rgb(255, 255, 255));&quot;&gt;椭圆形渲染&lt;/span&gt;&lt;/div&gt;" style="rounded=1;whiteSpace=wrap;html=1;" vertex="1" parent="1">
          <mxGeometry x="277" y="753" width="120" height="60" as="geometry" />
        </mxCell>
        <mxCell id="xDSBVTYBkB1Cw8n1Mpdg-26" style="edgeStyle=orthogonalEdgeStyle;rounded=0;orthogonalLoop=1;jettySize=auto;html=1;exitX=0.5;exitY=1;exitDx=0;exitDy=0;" edge="1" parent="1" source="xDSBVTYBkB1Cw8n1Mpdg-16" target="xDSBVTYBkB1Cw8n1Mpdg-16">
          <mxGeometry relative="1" as="geometry" />
        </mxCell>
        <mxCell id="xDSBVTYBkB1Cw8n1Mpdg-27" style="edgeStyle=orthogonalEdgeStyle;rounded=0;orthogonalLoop=1;jettySize=auto;html=1;exitX=0.5;exitY=1;exitDx=0;exitDy=0;" edge="1" parent="1" source="xDSBVTYBkB1Cw8n1Mpdg-16" target="xDSBVTYBkB1Cw8n1Mpdg-16">
          <mxGeometry relative="1" as="geometry" />
        </mxCell>
      </root>
    </mxGraphModel>
  </diagram>
</mxfile>
